<svg width="80" height="24" viewBox="0 0 80 24" fill="none" xmlns="http://www.w3.org/2000/svg">
<path d="M7.55016 21.7507C16.6045 21.7507 21.5583 14.2474 21.5583 7.74259C21.5583 7.53166 21.5536 7.31603 21.5442 7.10509C22.5079 6.40819 23.3395 5.54499 24 4.55603C23.1025 4.95533 22.1496 5.21611 21.1739 5.32947C22.2013 4.71364 22.9705 3.7462 23.3391 2.6065C22.3726 3.17929 21.3156 3.58334 20.2134 3.80134C19.4708 3.01229 18.489 2.48985 17.4197 2.31478C16.3504 2.13972 15.2532 2.32178 14.2977 2.83283C13.3423 3.34388 12.5818 4.15544 12.1338 5.14204C11.6859 6.12865 11.5754 7.23535 11.8195 8.29103C9.86249 8.19282 7.94794 7.68444 6.19998 6.79883C4.45203 5.91323 2.90969 4.67017 1.67297 3.15025C1.0444 4.23398 0.852057 5.51638 1.13503 6.73682C1.418 7.95727 2.15506 9.02418 3.19641 9.72072C2.41463 9.6959 1.64998 9.48541 0.965625 9.10666V9.16759C0.964925 10.3049 1.3581 11.4073 2.07831 12.2875C2.79852 13.1677 3.80132 13.7713 4.91625 13.9957C4.19206 14.1939 3.43198 14.2227 2.69484 14.0801C3.00945 15.0582 3.62157 15.9136 4.44577 16.5271C5.26997 17.1405 6.26512 17.4813 7.29234 17.502C5.54842 18.8718 3.39417 19.6149 1.17656 19.6113C0.783287 19.6107 0.390399 19.5866 0 19.5392C2.25286 20.9845 4.87353 21.7521 7.55016 21.7507Z" fill="#C8C7D8"/>
<path d="M76.317 4.15704C74.7873 3.45516 73.147 2.93804 71.4319 2.64187C71.4007 2.63615 71.3695 2.65044 71.3534 2.67901C71.1424 3.05422 70.9087 3.54372 70.7451 3.92846C68.9004 3.65229 67.0652 3.65229 65.2583 3.92846C65.0946 3.53517 64.8525 3.05422 64.6406 2.67901C64.6245 2.65139 64.5933 2.6371 64.562 2.64187C62.8479 2.93709 61.2076 3.45421 59.6769 4.15704C59.6637 4.16275 59.6523 4.17228 59.6448 4.18466C56.5334 8.83302 55.681 13.3671 56.0992 17.845C56.1011 17.8669 56.1134 17.8879 56.1304 17.9012C58.1832 19.4087 60.1717 20.3239 62.1233 20.9306C62.1545 20.9401 62.1876 20.9287 62.2075 20.903C62.6691 20.2725 63.0806 19.6078 63.4335 18.9088C63.4543 18.8678 63.4344 18.8193 63.3919 18.8031C62.7391 18.5555 62.1176 18.2536 61.5197 17.9107C61.4724 17.8831 61.4687 17.8155 61.5122 17.7831C61.638 17.6888 61.7638 17.5907 61.884 17.4917C61.9057 17.4736 61.936 17.4698 61.9615 17.4812C65.8893 19.2745 70.1415 19.2745 74.023 17.4812C74.0485 17.4688 74.0788 17.4726 74.1015 17.4907C74.2216 17.5898 74.3475 17.6888 74.4742 17.7831C74.5177 17.8155 74.5149 17.8831 74.4676 17.9107C73.8697 18.2602 73.2482 18.5555 72.5945 18.8021C72.552 18.8183 72.533 18.8678 72.5538 18.9088C72.9143 19.6068 73.3258 20.2716 73.7789 20.902C73.7978 20.9287 73.8319 20.9401 73.8631 20.9306C75.8241 20.3239 77.8126 19.4087 79.8654 17.9012C79.8834 17.8879 79.8948 17.8679 79.8967 17.846C80.3971 12.669 79.0585 8.1721 76.3482 4.1856C76.3416 4.17228 76.3303 4.16275 76.317 4.15704ZM64.02 15.1184C62.8375 15.1184 61.8631 14.0328 61.8631 12.6995C61.8631 11.3662 62.8186 10.2806 64.02 10.2806C65.2309 10.2806 66.1958 11.3758 66.1769 12.6995C66.1769 14.0328 65.2214 15.1184 64.02 15.1184ZM71.9947 15.1184C70.8123 15.1184 69.8379 14.0328 69.8379 12.6995C69.8379 11.3662 70.7933 10.2806 71.9947 10.2806C73.2056 10.2806 74.1705 11.3758 74.1516 12.6995C74.1516 14.0328 73.2056 15.1184 71.9947 15.1184Z" fill="#C8C7D8"/>
</svg>
